<svg width="618" height="38" viewBox="0 0 618 38" fill="none" xmlns="http://www.w3.org/2000/svg">
<path d="M99.8783 15.6538C99.8783 19.522 98.7309 22.6035 96.4357 24.8986C93.8569 27.632 90.4659 28.9989 86.2625 28.9989C82.2397 28.9989 78.8357 27.6064 76.0506 24.8213C73.2656 22.0363 71.873 18.6064 71.873 14.532C71.873 10.4575 73.2656 7.0278 76.0506 4.24278C78.8357 1.45772 82.2397 0.0651855 86.2625 0.0651855C88.2997 0.0651855 90.2209 0.426213 92.0261 1.14827C93.8311 1.87031 95.3139 2.88892 96.4744 4.20409L93.9214 6.7571C93.0705 5.72559 91.9616 4.92615 90.5949 4.35882C89.2538 3.76571 87.8097 3.46915 86.2625 3.46915C83.2454 3.46915 80.6924 4.51354 78.6036 6.60233C76.5406 8.71694 75.5091 11.3602 75.5091 14.532C75.5091 17.7039 76.5406 20.3471 78.6036 22.4617C80.6924 24.5506 83.2454 25.595 86.2625 25.595C89.0218 25.595 91.3169 24.8213 93.1479 23.274C94.9787 21.7267 96.036 19.5992 96.3196 16.8916H86.2625V13.5649H99.685C99.8138 14.2871 99.8783 14.9834 99.8783 15.6538ZM102.311 18.9031C102.311 15.9891 103.227 13.5778 105.058 11.6696C106.914 9.76134 109.248 8.80722 112.059 8.80722C114.87 8.80722 117.191 9.76134 119.022 11.6696C120.878 13.5778 121.807 15.9891 121.807 18.9031C121.807 21.8428 120.878 24.2539 119.022 26.1364C117.191 28.0448 114.87 28.9989 112.059 28.9989C109.248 28.9989 106.914 28.0448 105.058 26.1364C103.227 24.2281 102.311 21.817 102.311 18.9031ZM105.87 18.9031C105.87 20.9403 106.463 22.5906 107.649 23.8542C108.836 25.1178 110.306 25.7496 112.059 25.7496C113.813 25.7496 115.282 25.1178 116.469 23.8542C117.655 22.5906 118.248 20.9403 118.248 18.9031C118.248 16.8916 117.655 15.2541 116.469 13.9904C115.257 12.7011 113.787 12.0564 112.059 12.0564C110.331 12.0564 108.861 12.7011 107.649 13.9904C106.463 15.2541 105.87 16.8916 105.87 18.9031ZM123.956 18.9031C123.956 15.9891 124.872 13.5778 126.703 11.6696C128.559 9.76134 130.893 8.80722 133.704 8.80722C136.515 8.80722 138.836 9.76134 140.667 11.6696C142.523 13.5778 143.452 15.9891 143.452 18.9031C143.452 21.8428 142.523 24.2539 140.667 26.1364C138.836 28.0448 136.515 28.9989 133.704 28.9989C130.893 28.9989 128.559 28.0448 126.703 26.1364C124.872 24.2281 123.956 21.817 123.956 18.9031ZM127.515 18.9031C127.515 20.9403 128.108 22.5906 129.294 23.8542C130.481 25.1178 131.95 25.7496 133.704 25.7496C135.458 25.7496 136.927 25.1178 138.114 23.8542C139.3 22.5906 139.893 20.9403 139.893 18.9031C139.893 16.8916 139.3 15.2541 138.114 13.9904C136.902 12.7011 135.432 12.0564 133.704 12.0564C131.976 12.0564 130.506 12.7011 129.294 13.9904C128.108 15.2541 127.515 16.8916 127.515 18.9031ZM155.194 25.7496C156.948 25.7496 158.379 25.1178 159.488 23.8542C160.648 22.5906 161.229 20.9403 161.229 18.9031C161.229 16.9174 160.648 15.2799 159.488 13.9904C158.353 12.7011 156.922 12.0564 155.194 12.0564C153.492 12.0564 152.061 12.7011 150.901 13.9904C149.74 15.2799 149.16 16.9174 149.16 18.9031C149.16 20.9145 149.74 22.552 150.901 23.8156C152.061 25.1049 153.492 25.7496 155.194 25.7496ZM155.078 37.354C154.021 37.354 153.028 37.2123 152.1 36.9285C151.171 36.6707 150.32 36.2967 149.547 35.8067C148.799 35.3168 148.154 34.7365 147.613 34.0662C147.071 33.3956 146.659 32.6479 146.375 31.8226L149.74 30.4301C150.127 31.539 150.798 32.4286 151.752 33.0991C152.706 33.7695 153.815 34.1048 155.078 34.1048C157.012 34.1048 158.521 33.5246 159.604 32.3641C160.687 31.2036 161.229 29.6049 161.229 27.5677V25.7496H161.074C160.403 26.7553 159.488 27.5548 158.327 28.1478C157.193 28.7151 155.955 28.9989 154.614 28.9989C152.138 28.9989 150.011 28.0319 148.232 26.0978C146.478 24.112 145.601 21.7138 145.601 18.9031C145.601 16.0921 146.478 13.7068 148.232 11.747C150.011 9.78714 152.138 8.80722 154.614 8.80722C155.955 8.80722 157.193 9.10372 158.327 9.69686C159.488 10.2642 160.403 11.0507 161.074 12.0564H161.229V9.42601H164.632V27.5677C164.632 30.6106 163.769 32.996 162.041 34.7236C160.287 36.4773 157.966 37.354 155.078 37.354ZM172.53 0.684091V28.38H168.971V0.684091H172.53ZM185.187 28.9989C182.402 28.9989 180.107 28.0448 178.302 26.1364C176.497 24.2281 175.594 21.817 175.594 18.9031C175.594 16.0147 176.471 13.6165 178.225 11.7083C179.978 9.77424 182.222 8.80722 184.955 8.80722C187.766 8.80722 189.997 9.72265 191.647 11.5535C193.323 13.3587 194.162 15.8988 194.162 19.1738L194.123 19.5605H179.23C179.282 21.4173 179.901 22.913 181.087 24.0477C182.273 25.1823 183.692 25.7496 185.342 25.7496C187.611 25.7496 189.391 24.6149 190.68 22.3457L193.852 23.8929C193.001 25.4918 191.815 26.7424 190.293 27.645C188.798 28.5476 187.096 28.9989 185.187 28.9989ZM179.501 16.6208H190.371C190.268 15.3057 189.726 14.2226 188.746 13.3716C187.792 12.4947 186.503 12.0564 184.878 12.0564C183.537 12.0564 182.377 12.4689 181.397 13.2942C180.442 14.1194 179.811 15.2283 179.501 16.6208ZM206.534 28.38V0.684091H215.005C219.235 0.684091 222.625 1.96058 225.178 4.51354C227.758 7.06649 229.046 10.4061 229.046 14.532C229.046 18.6838 227.758 22.0363 225.178 24.5891C222.625 27.1163 219.235 28.38 215.005 28.38H206.534ZM210.093 4.08806V24.976H215.005C218.229 24.976 220.769 24.0606 222.625 22.2296C224.483 20.3729 225.41 17.8071 225.41 14.532C225.41 11.2828 224.483 8.72983 222.625 6.87317C220.769 5.0164 218.229 4.08806 215.005 4.08806H210.093ZM240.603 28.9989C237.818 28.9989 235.522 28.0448 233.718 26.1364C231.912 24.2281 231.01 21.817 231.01 18.9031C231.01 16.0147 231.886 13.6165 233.64 11.7083C235.393 9.77424 237.638 8.80722 240.371 8.80722C243.181 8.80722 245.412 9.72265 247.063 11.5535C248.739 13.3587 249.578 15.8988 249.578 19.1738L249.538 19.5605H234.646C234.698 21.4173 235.316 22.913 236.503 24.0477C237.689 25.1823 239.107 25.7496 240.758 25.7496C243.027 25.7496 244.807 24.6149 246.095 22.3457L249.268 23.8929C248.417 25.4918 247.23 26.7424 245.708 27.645C244.213 28.5476 242.512 28.9989 240.603 28.9989ZM234.917 16.6208H245.787C245.684 15.3057 245.142 14.2226 244.162 13.3716C243.207 12.4947 241.919 12.0564 240.293 12.0564C238.952 12.0564 237.792 12.4689 236.812 13.2942C235.858 14.1194 235.226 15.2283 234.917 16.6208ZM261.66 28.38H258.101L250.442 9.42601H254.31L259.88 24.1249H259.959L265.606 9.42601H269.396L261.66 28.38ZM279.663 28.9989C276.877 28.9989 274.582 28.0448 272.776 26.1364C270.972 24.2281 270.069 21.817 270.069 18.9031C270.069 16.0147 270.946 13.6165 272.699 11.7083C274.453 9.77424 276.696 8.80722 279.431 8.80722C282.241 8.80722 284.472 9.72265 286.122 11.5535C287.797 13.3587 288.636 15.8988 288.636 19.1738L288.597 19.5605H273.705C273.757 21.4173 274.376 22.913 275.562 24.0477C276.748 25.1823 278.167 25.7496 279.816 25.7496C282.086 25.7496 283.865 24.6149 285.155 22.3457L288.327 23.8929C287.476 25.4918 286.29 26.7424 284.768 27.645C283.272 28.5476 281.57 28.9989 279.663 28.9989ZM273.975 16.6208H284.845C284.742 15.3057 284.201 14.2226 283.22 13.3716C282.267 12.4947 280.977 12.0564 279.352 12.0564C278.012 12.0564 276.851 12.4689 275.872 13.2942C274.917 14.1194 274.286 15.2283 273.975 16.6208ZM295.449 0.684091V28.38H291.89V0.684091H295.449ZM298.513 18.9031C298.513 15.9891 299.428 13.5778 301.26 11.6696C303.116 9.76134 305.45 8.80722 308.262 8.80722C311.072 8.80722 313.393 9.76134 315.223 11.6696C317.081 13.5778 318.009 15.9891 318.009 18.9031C318.009 21.8428 317.081 24.2539 315.223 26.1364C313.393 28.0448 311.072 28.9989 308.262 28.9989C305.45 28.9989 303.116 28.0448 301.26 26.1364C299.428 24.2281 298.513 21.817 298.513 18.9031ZM302.072 18.9031C302.072 20.9403 302.665 22.5906 303.852 23.8542C305.037 25.1178 306.508 25.7496 308.262 25.7496C310.015 25.7496 311.485 25.1178 312.671 23.8542C313.857 22.5906 314.451 20.9403 314.451 18.9031C314.451 16.8916 313.857 15.2541 312.671 13.9904C311.459 12.7011 309.989 12.0564 308.262 12.0564C306.533 12.0564 305.063 12.7011 303.852 13.9904C302.665 15.2541 302.072 16.8916 302.072 18.9031ZM330.337 25.7496C332.038 25.7496 333.469 25.1049 334.63 23.8156C335.79 22.552 336.371 20.9145 336.371 18.9031C336.371 16.9174 335.79 15.2799 334.63 13.9904C333.469 12.7011 332.038 12.0564 330.337 12.0564C328.608 12.0564 327.164 12.7011 326.004 13.9904C324.869 15.2799 324.302 16.9174 324.302 18.9031C324.302 20.9145 324.869 22.5649 326.004 23.8542C327.164 25.1178 328.608 25.7496 330.337 25.7496ZM330.917 28.9989C329.524 28.9989 328.247 28.7023 327.088 28.1092C325.953 27.5161 325.076 26.7295 324.457 25.7496H324.302L324.457 28.38V36.7351H320.898V9.42601H324.302V12.0564H324.457C325.076 11.0765 325.953 10.29 327.088 9.69686C328.247 9.10372 329.524 8.80722 330.917 8.80722C333.418 8.80722 335.533 9.78714 337.26 11.747C339.04 13.7326 339.929 16.1179 339.929 18.9031C339.929 21.7138 339.04 24.0992 337.26 26.0591C335.533 28.019 333.418 28.9989 330.917 28.9989ZM351.698 28.9989C348.914 28.9989 346.619 28.0448 344.813 26.1364C343.009 24.2281 342.106 21.817 342.106 18.9031C342.106 16.0147 342.983 13.6165 344.736 11.7083C346.49 9.77424 348.733 8.80722 351.466 8.80722C354.278 8.80722 356.508 9.72265 358.159 11.5535C359.834 13.3587 360.673 15.8988 360.673 19.1738L360.634 19.5605H345.742C345.793 21.4173 346.412 22.913 347.598 24.0477C348.785 25.1823 350.203 25.7496 351.853 25.7496C354.122 25.7496 355.902 24.6149 357.192 22.3457L360.363 23.8929C359.512 25.4918 358.326 26.7424 356.805 27.645C355.309 28.5476 353.607 28.9989 351.698 28.9989ZM346.012 16.6208H356.882C356.779 15.3057 356.237 14.2226 355.257 13.3716C354.304 12.4947 353.014 12.0564 351.389 12.0564C350.049 12.0564 348.888 12.4689 347.908 13.2942C346.954 14.1194 346.322 15.2283 346.012 16.6208ZM367.486 28.38H363.927V9.42601H367.331V12.5205H367.486C367.847 11.5148 368.581 10.6639 369.691 9.96756C370.826 9.24559 371.934 8.8846 373.017 8.8846C374.049 8.8846 374.926 9.03923 375.647 9.34877L374.565 12.7914C374.126 12.6108 373.43 12.5205 372.475 12.5205C371.135 12.5205 369.961 13.0621 368.956 14.1452C367.976 15.2283 367.486 16.4919 367.486 17.936V28.38ZM403.024 20.9919C403.024 23.4159 402.133 25.3628 400.355 26.8327C398.55 28.2768 396.357 28.9989 393.779 28.9989C391.483 28.9989 389.46 28.3284 387.706 26.9875C385.953 25.6464 384.74 23.8155 384.07 21.4947L387.474 20.1021C387.706 20.9274 388.029 21.6751 388.44 22.3457C388.853 23.0162 389.331 23.5963 389.873 24.0863C390.439 24.5506 391.058 24.9244 391.729 25.208C392.399 25.466 393.108 25.595 393.856 25.595C395.48 25.595 396.808 25.1823 397.84 24.3571C398.872 23.5062 399.388 22.3844 399.388 20.9919C399.388 19.8314 398.963 18.8386 398.111 18.0134C397.312 17.2139 395.816 16.4404 393.624 15.6924C391.407 14.8931 390.026 14.3515 389.486 14.0678C386.545 12.5721 385.076 10.3674 385.076 7.45328C385.076 5.41605 385.888 3.67545 387.513 2.23134C389.163 0.787241 391.187 0.0651855 393.585 0.0651855C395.7 0.0651855 397.531 0.60672 399.078 1.6898C400.625 2.74709 401.657 4.07516 402.173 5.674L398.846 7.06649C398.537 6.03499 397.918 5.18404 396.99 4.51354C396.087 3.81728 394.978 3.46915 393.662 3.46915C392.27 3.46915 391.097 3.85596 390.143 4.62959C389.188 5.3517 388.712 6.29293 388.712 7.45328C388.712 8.40754 389.085 9.23269 389.833 9.92887C390.659 10.6252 392.451 11.4503 395.21 12.4046C398.021 13.3587 400.019 14.532 401.206 15.9246C402.417 17.2913 403.024 18.9804 403.024 20.9919ZM413.21 28.6894C411.662 28.6894 410.374 28.2123 409.342 27.2582C408.336 26.304 407.82 24.976 407.794 23.274V12.6753H404.469V9.42601H407.794V3.62388H411.354V9.42601H415.995V12.6753H411.354V22.1135C411.354 23.3772 411.599 24.241 412.089 24.7052C412.579 25.1436 413.133 25.3628 413.752 25.3628C414.036 25.3628 414.306 25.337 414.564 25.2854C414.848 25.208 415.106 25.1178 415.338 25.0147L416.459 28.1865C415.531 28.5218 414.448 28.6894 413.21 28.6894ZM436.013 28.38H432.609V25.7496H432.454C431.914 26.6779 431.075 27.4516 429.941 28.0706C428.832 28.6894 427.671 28.9989 426.46 28.9989C424.138 28.9989 422.346 28.3413 421.083 27.0262C419.845 25.6851 419.226 23.7898 419.226 21.34V9.42601H422.784V21.1078C422.862 24.2023 424.422 25.7496 427.466 25.7496C428.883 25.7496 430.07 25.1823 431.023 24.0477C431.978 22.8872 432.454 21.5076 432.454 19.9088V9.42601H436.013V28.38ZM448.667 25.7496C450.42 25.7496 451.851 25.1178 452.96 23.8542C454.12 22.5906 454.701 20.9403 454.701 18.9031C454.701 16.9174 454.12 15.2799 452.96 13.9904C451.825 12.7011 450.394 12.0564 448.667 12.0564C446.965 12.0564 445.533 12.7011 444.373 13.9904C443.213 15.2799 442.632 16.9174 442.632 18.9031C442.632 20.9145 443.213 22.552 444.373 23.8156C445.533 25.1049 446.965 25.7496 448.667 25.7496ZM448.086 28.9989C445.611 28.9989 443.483 28.019 441.703 26.0591C439.95 24.0735 439.073 21.688 439.073 18.9031C439.073 16.1179 439.95 13.7326 441.703 11.747C443.483 9.78714 445.611 8.80722 448.086 8.80722C449.479 8.80722 450.742 9.10372 451.877 9.69686C453.038 10.29 453.927 11.0765 454.546 12.0564H454.701L454.546 9.42601V0.684091H458.105V28.38H454.701V25.7496H454.546C453.927 26.7295 453.038 27.5161 451.877 28.1092C450.742 28.7023 449.479 28.9989 448.086 28.9989ZM470.765 28.9989C467.98 28.9989 465.684 28.0448 463.88 26.1364C462.074 24.2281 461.171 21.817 461.171 18.9031C461.171 16.0147 462.048 13.6165 463.802 11.7083C465.555 9.77424 467.8 8.80722 470.533 8.80722C473.343 8.80722 475.574 9.72265 477.224 11.5535C478.901 13.3587 479.739 15.8988 479.739 19.1738L479.7 19.5605H464.807C464.859 21.4173 465.478 22.913 466.665 24.0477C467.851 25.1823 469.269 25.7496 470.92 25.7496C473.189 25.7496 474.969 24.6149 476.257 22.3457L479.429 23.8929C478.579 25.4918 477.392 26.7424 475.87 27.645C474.375 28.5476 472.673 28.9989 470.765 28.9989ZM465.079 16.6208H475.948C475.845 15.3057 475.304 14.2226 474.324 13.3716C473.369 12.4947 472.081 12.0564 470.455 12.0564C469.114 12.0564 467.953 12.4689 466.974 13.2942C466.02 14.1194 465.388 15.2283 465.079 16.6208ZM482.993 9.42601H486.397V12.0564H486.552C487.094 11.128 487.918 10.3545 489.027 9.73555C490.161 9.11661 491.336 8.80722 492.548 8.80722C494.869 8.80722 496.647 9.4776 497.886 10.8186C499.148 12.1338 499.781 14.0162 499.781 16.4662V28.38H496.222V16.6982C496.145 13.6036 494.585 12.0564 491.542 12.0564C490.123 12.0564 488.938 12.6366 487.983 13.7971C487.029 14.9318 486.552 16.2985 486.552 17.8973V28.38H482.993V9.42601ZM510.48 28.6894C508.933 28.6894 507.644 28.2123 506.612 27.2582C505.607 26.304 505.091 24.976 505.065 23.274V12.6753H501.739V9.42601H505.065V3.62388H508.624V9.42601H513.265V12.6753H508.624V22.1135C508.624 23.3772 508.868 24.241 509.358 24.7052C509.849 25.1436 510.403 25.3628 511.022 25.3628C511.305 25.3628 511.576 25.337 511.834 25.2854C512.117 25.208 512.375 25.1178 512.608 25.0147L513.729 28.1865C512.802 28.5218 511.718 28.6894 510.48 28.6894ZM538.049 28.9989C533.949 28.9989 530.519 27.6193 527.76 24.86C525.027 22.1006 523.659 18.658 523.659 14.532C523.659 10.4061 525.027 6.97621 527.76 4.24278C530.493 1.45772 533.923 0.0651855 538.049 0.0651855C542.227 0.0651855 545.617 1.57376 548.223 4.59091L545.669 7.06649C543.684 4.66827 541.143 3.46915 538.049 3.46915C534.98 3.46915 532.414 4.50065 530.352 6.56364C528.314 8.60086 527.296 11.257 527.296 14.532C527.296 17.8071 528.314 20.4632 530.352 22.5004C532.414 24.5635 534.98 25.595 538.049 25.595C541.272 25.595 544.071 24.241 546.443 21.5334L549.035 24.0477C547.719 25.6206 546.107 26.8456 544.2 27.7223C542.291 28.5734 540.241 28.9989 538.049 28.9989ZM555.755 0.684091V28.38H552.196V0.684091H555.755ZM576.724 28.38H573.32V25.7496H573.167C572.625 26.6779 571.786 27.4516 570.652 28.0706C569.543 28.6894 568.382 28.9989 567.171 28.9989C564.849 28.9989 563.057 28.3413 561.794 27.0262C560.556 25.6851 559.937 23.7898 559.937 21.34V9.42601H563.495V21.1078C563.573 24.2023 565.133 25.7496 568.176 25.7496C569.594 25.7496 570.781 25.1823 571.734 24.0477C572.689 22.8872 573.167 21.5076 573.167 19.9088V9.42601H576.724V28.38ZM591.075 28.9989C589.682 28.9989 588.406 28.7023 587.245 28.1092C586.11 27.5161 585.234 26.7295 584.615 25.7496H584.46V28.38H581.057V0.684091H584.615V9.42601L584.46 12.0564H584.615C585.234 11.0765 586.11 10.29 587.245 9.69686C588.406 9.10372 589.682 8.80722 591.075 8.80722C593.576 8.80722 595.692 9.78714 597.419 11.747C599.198 13.7326 600.088 16.1179 600.088 18.9031C600.088 21.7138 599.198 24.0992 597.419 26.0591C595.692 28.019 593.576 28.9989 591.075 28.9989ZM590.494 25.7496C592.197 25.7496 593.628 25.1049 594.789 23.8156C595.95 22.552 596.528 20.9145 596.528 18.9031C596.528 16.9174 595.95 15.2799 594.789 13.9904C593.628 12.7011 592.197 12.0564 590.494 12.0564C588.767 12.0564 587.323 12.7011 586.163 13.9904C585.028 15.2799 584.46 16.9174 584.46 18.9031C584.46 20.9145 585.028 22.5649 586.163 23.8542C587.323 25.1178 588.767 25.7496 590.494 25.7496ZM617.661 23.1192C617.661 24.7697 616.938 26.1622 615.494 27.2969C614.05 28.4315 612.232 28.9989 610.04 28.9989C608.132 28.9989 606.455 28.5089 605.012 27.529C603.567 26.5233 602.535 25.208 601.917 23.5834L605.089 22.2296C605.552 23.3643 606.223 24.2539 607.1 24.8986C608.003 25.5176 608.983 25.827 610.04 25.827C611.175 25.827 612.116 25.5821 612.864 25.0921C613.638 24.602 614.025 24.0219 614.025 23.3514C614.025 22.1393 613.096 21.2497 611.24 20.6823L607.991 19.8701C604.302 18.9417 602.458 17.1623 602.458 14.532C602.458 12.8043 603.154 11.4247 604.547 10.3932C605.965 9.33587 607.771 8.80722 609.962 8.80722C611.639 8.80722 613.148 9.2069 614.489 10.0063C615.855 10.8057 616.809 11.8759 617.351 13.2169L614.179 14.532C613.818 13.7326 613.225 13.1137 612.399 12.6753C611.6 12.2111 610.698 11.979 609.692 11.979C608.763 11.979 607.926 12.2111 607.177 12.6753C606.455 13.1395 606.094 13.7068 606.094 14.3773C606.094 15.4604 607.114 16.234 609.15 16.6982L612.013 17.4332C615.778 18.3615 617.661 20.2569 617.661 23.1192Z" fill="#777777"/>
<path d="M14.5544 14.5031L24.258 8.90388C24.8006 8.59009 25.276 8.17251 25.6571 7.67499C26.0383 7.17746 26.3177 6.60974 26.4794 6.00423C26.6412 5.39872 26.6821 4.76728 26.5998 4.14596C26.5175 3.52465 26.3137 2.92562 25.9999 2.38309C25.6861 1.84056 25.2685 1.36515 24.771 0.983998C24.2735 0.602847 23.7057 0.323423 23.1002 0.161679C21.8773 -0.164978 20.5748 0.00753282 19.4791 0.641261L2.72266 10.3132L14.5544 14.5031Z" fill="#EA4335"/>
<path d="M21.8605 28.8904C22.911 28.8916 23.9325 28.5461 24.7666 27.9076C25.6007 27.2691 26.2009 26.3732 26.474 25.3589C26.7472 24.3446 26.6781 23.2685 26.2774 22.2974C25.8767 21.3264 25.1669 20.5147 24.2579 19.9881L7.49519 10.313C6.39949 9.68013 5.09727 9.50842 3.87498 9.83567C2.65268 10.1629 1.61046 10.9623 0.977567 12.058C0.344679 13.1537 0.172973 14.4559 0.500224 15.6782C0.827475 16.9005 1.62687 17.9427 2.72257 18.5756L19.4758 28.2476C20.2001 28.6684 21.0229 28.8902 21.8605 28.8904Z" fill="#4285F4"/>
<path d="M38.5268 28.8903C39.3626 28.8923 40.1841 28.6738 40.9084 28.2569L57.6616 18.585L45.9819 14.3032L36.1358 19.9879C35.2257 20.5135 34.5146 21.3248 34.1127 22.2958C33.7109 23.2669 33.6407 24.3434 33.9133 25.3584C34.1858 26.3734 34.7857 27.27 35.6199 27.9092C36.4541 28.5484 37.4759 28.8944 38.5268 28.8934V28.8903Z" fill="#FBBC04"/>
<path d="M55.2695 19.2156C56.3207 19.218 57.3433 18.8729 58.1782 18.2341C59.0131 17.5954 59.6136 16.6986 59.8863 15.6834C60.1589 14.6681 60.0886 13.5912 59.6861 12.6201C59.2836 11.6489 58.5715 10.838 57.6606 10.3133L40.9073 0.641385C39.8116 0.00849652 38.5094 -0.163208 37.2871 0.164042C36.0648 0.491293 35.0226 1.29069 34.3897 2.38638C33.7568 3.48207 33.5851 4.7843 33.9123 6.00659C34.2396 7.22888 35.039 8.27111 36.1347 8.904L52.8879 18.5759C53.6116 18.9951 54.4332 19.2158 55.2695 19.2156Z" fill="#0F9D58"/>
</svg>
