<svg width="48" height="50" viewBox="0 0 48 50" fill="none" xmlns="http://www.w3.org/2000/svg">
<path d="M0.555664 3.33345C0.555664 2.61422 0.804515 1.92444 1.24747 1.41587C1.69043 0.907296 2.29121 0.621582 2.91765 0.621582H45.4334C46.0599 0.621582 46.6606 0.907296 47.1036 1.41587C47.5466 1.92444 47.7954 2.61422 47.7954 3.33345V13.4802C47.7954 16.1138 45.3497 18.2485 43.62 20.2344C42.5126 21.5059 41.8904 23.2303 41.8904 25.0284C41.8904 26.8265 42.5126 28.5509 43.62 29.8223C45.3497 31.8083 47.7954 33.943 47.7954 36.5766V46.7233C47.7954 47.4426 47.5466 48.1323 47.1036 48.6409C46.6606 49.1495 46.0599 49.4352 45.4334 49.4352H2.91765C2.29121 49.4352 1.69043 49.1495 1.24747 48.6409C0.804515 48.1323 0.555664 47.4426 0.555664 46.7233V3.33345ZM12.5371 44.0115C13.9581 44.0115 15.1203 42.9384 16.2227 42.0419C16.8214 41.555 17.5369 41.2936 18.2706 41.2936C19.0042 41.2936 19.7197 41.555 20.3184 42.0419C21.4209 42.9384 22.583 44.0115 24.0041 44.0115H37.9822C40.7929 44.0115 43.0714 41.7329 43.0714 38.9222C43.0714 37.0926 42.0198 35.4632 40.7379 34.1576C39.972 33.3776 39.3046 32.4709 38.7596 31.4624C37.7155 29.5305 37.1623 27.302 37.1623 25.0284C37.1623 22.7548 37.7155 20.5263 38.7596 18.5944C39.3046 17.5859 39.972 16.6792 40.7379 15.8991C42.0198 14.5936 43.0714 12.9642 43.0714 11.1345C43.0714 8.32384 40.7929 6.04532 37.9822 6.04532H24.004C22.583 6.04532 21.4209 7.11837 20.3184 8.01493C19.7197 8.50177 19.0042 8.76323 18.2706 8.76323C17.5369 8.76323 16.8214 8.50177 16.2227 8.01493C15.1203 7.11837 13.9581 6.04532 12.5371 6.04532H10.8265C7.76306 6.04532 5.27964 8.52873 5.27964 11.5922V38.4646C5.27964 41.5281 7.76305 44.0115 10.8265 44.0115H12.5371ZM18.2706 22.3165C17.3309 22.3165 16.4297 21.888 15.7653 21.1251C15.1009 20.3622 14.7276 19.3276 14.7276 18.2487C14.7276 17.1699 15.1009 16.1352 15.7653 15.3724C16.4297 14.6095 17.3309 14.1809 18.2706 14.1809C19.2102 14.1809 20.1114 14.6095 20.7758 15.3724C21.4403 16.1352 21.8136 17.1699 21.8136 18.2487C21.8136 19.3276 21.4403 20.3622 20.7758 21.1251C20.1114 21.888 19.2102 22.3165 18.2706 22.3165ZM18.2706 35.8759C17.3309 35.8759 16.4297 35.4473 15.7653 34.6844C15.1009 33.9216 14.7276 32.8869 14.7276 31.8081C14.7276 30.7292 15.1009 29.6946 15.7653 28.9317C16.4297 28.1688 17.3309 27.7403 18.2706 27.7403C19.2102 27.7403 20.1114 28.1688 20.7758 28.9317C21.4403 29.6946 21.8136 30.7292 21.8136 31.8081C21.8136 32.8869 21.4403 33.9216 20.7758 34.6844C20.1114 35.4473 19.2102 35.8759 18.2706 35.8759Z" fill="#242424"/>
</svg>
